<?xml version="1.0" encoding="UTF-8" standalone="no"?>
<!DOCTYPE svg PUBLIC "-//W3C//DTD SVG 1.1//EN" "http://www.w3.org/Graphics/SVG/1.1/DTD/svg11.dtd">
<svg width="100%" height="100%" viewBox="0 0 953 568" version="1.1" xmlns="http://www.w3.org/2000/svg" xmlns:xlink="http://www.w3.org/1999/xlink" xml:space="preserve" xmlns:serif="http://www.serif.com/" style="fill-rule:evenodd;clip-rule:evenodd;stroke-linejoin:round;stroke-miterlimit:2;">
    <g id="Artboard1" transform="matrix(1,0,0,1,-483.505,-256.037)">
        <rect x="483.505" y="256.037" width="952.62" height="567.248" style="fill:none;"/>
        <g transform="matrix(1,0,0,1,337.014,70.5084)">
            <path id="New-Message" serif:id="New Message" d="M927.395,187.872C833.641,187.872 757.669,250.105 757.669,326.078C757.669,372.146 784.34,411.749 827.176,436.804C821.518,465.092 790.806,494.996 790.806,494.996C790.806,494.996 843.34,501.462 882.135,462.667C882.135,462.667 927.395,464.283 943.559,463.475C1037.31,461.051 1097.12,401.242 1097.12,325.269C1097.12,249.297 1021.15,187.872 927.395,187.872Z" style="fill:rgb(230,100,99);fill-rule:nonzero;stroke:rgb(171,85,79);stroke-width:1px;"/>
            <g transform="matrix(0.0630993,6.38506e-19,-6.38506e-19,0.0630993,836.722,227.164)">
                <g transform="matrix(4.16667,0,0,4.16667,2783.11,1121.04)">
                    <path d="M0,182.622C0,187.366 -0.231,192.066 -0.693,196.703C-1.139,201.011 -1.753,205.274 -2.581,209.475C-14.649,271.118 -68.718,320.051 -156.002,320.051C-223.217,320.051 -271.064,293.662 -296.475,274.989C-291.722,271.225 -287.165,267.228 -282.777,263.018C-262.502,243.545 -246.714,220.021 -235.677,193.125C-215.812,205.835 -186.184,220.387 -154.766,220.387C-136.502,220.387 -117.002,214.583 -110.576,197.842L-110.549,197.842C-109.134,194.157 -108.333,189.921 -108.333,185.097C-108.333,157.008 -165.081,144.45 -218.037,118.141C-222.211,116.076 -226.395,113.913 -230.488,111.635C-271.785,88.841 -307.671,55.928 -307.671,-1.852C-307.671,-27.36 -300.96,-50.162 -289.069,-69.458C-286.8,-73.151 -284.325,-76.729 -281.638,-80.165C-253.86,-116.193 -206.244,-137.429 -151.045,-137.429C-55.715,-137.429 -8.668,-87.285 -8.668,-87.285L-54.478,1.246C-54.478,1.246 -99.05,-37.755 -152.282,-37.755C-174.568,-37.755 -199.338,-27.849 -199.338,-3.089C-199.338,52.626 0,42.72 0,182.622" style="fill:white;fill-rule:nonzero;"/>
                </g>
                <g transform="matrix(4.16667,0,0,4.16667,1655.39,1463.69)">
                    <path d="M0,18.157C-33.58,-9.238 -49.912,-42.694 -49.912,-84.089C-49.912,-112.641 -42.071,-138.567 -27.982,-160.488C-67.241,-194.202 -121.799,-212.234 -187.492,-212.234L-344.732,-212.234L-344.732,230.391L-187.492,230.391C-126.285,230.391 -74.753,214.371 -36.241,184.573C-9.487,163.916 10.965,136.628 24.066,103.483C31.311,85.193 36.321,65.105 38.867,43.353C25.25,36.188 12.024,27.956 0,18.157M-191.826,137.527L-236.398,137.527L-236.398,-119.378L-191.826,-119.378C-118.782,-119.378 -71.113,-76.043 -71.113,8.153C-71.113,92.964 -116.949,137.527 -191.826,137.527" style="fill:white;fill-rule:nonzero;"/>
                </g>
            </g>
            <g transform="matrix(1,0,0,1,-33.8494,114.524)">
                <g transform="matrix(21.4343,0,0,21.4343,-11941.7,-8089.73)">
                    <path d="M571.87,388.605C572.35,388.757 572.726,389.011 572.998,389.367C573.27,389.723 573.406,390.161 573.406,390.681C573.406,391.417 573.12,391.983 572.548,392.379C571.976,392.775 571.142,392.973 570.046,392.973L565.702,392.973L565.702,384.573L569.806,384.573C570.83,384.573 571.616,384.769 572.164,385.161C572.712,385.553 572.986,386.085 572.986,386.757C572.986,387.165 572.888,387.529 572.692,387.849C572.496,388.169 572.222,388.421 571.87,388.605ZM567.634,386.037L567.634,388.017L569.566,388.017C570.046,388.017 570.41,387.933 570.658,387.765C570.906,387.597 571.03,387.349 571.03,387.021C571.03,386.693 570.906,386.447 570.658,386.283C570.41,386.119 570.046,386.037 569.566,386.037L567.634,386.037ZM569.902,391.509C570.414,391.509 570.8,391.425 571.06,391.257C571.32,391.089 571.45,390.829 571.45,390.477C571.45,389.781 570.934,389.433 569.902,389.433L567.634,389.433L567.634,391.509L569.902,391.509Z" style="fill:rgb(51,55,67);fill-rule:nonzero;"/>
                </g>
                <g transform="matrix(21.4343,0,0,21.4343,-11941.7,-8089.73)">
                    <path d="M576.226,393.069C575.498,393.069 574.93,392.875 574.522,392.487C574.114,392.099 573.91,391.549 573.91,390.837L573.91,384.069L575.782,384.069L575.782,390.729C575.782,391.001 575.852,391.211 575.992,391.359C576.132,391.507 576.33,391.581 576.586,391.581C576.682,391.581 576.78,391.569 576.88,391.545C576.98,391.521 577.058,391.493 577.114,391.461L577.198,392.913C576.886,393.017 576.562,393.069 576.226,393.069Z" style="fill:rgb(51,55,67);fill-rule:nonzero;"/>
                </g>
                <g transform="matrix(21.4343,0,0,21.4343,-11937.2,-8089.73)">
                    <path d="M580.354,393.069C579.674,393.069 579.064,392.927 578.524,392.643C577.984,392.359 577.562,391.965 577.258,391.461C576.954,390.957 576.802,390.385 576.802,389.745C576.802,389.105 576.954,388.533 577.258,388.029C577.562,387.525 577.984,387.131 578.524,386.847C579.064,386.563 579.674,386.421 580.354,386.421C581.034,386.421 581.642,386.563 582.178,386.847C582.714,387.131 583.134,387.525 583.438,388.029C583.742,388.533 583.894,389.105 583.894,389.745C583.894,390.385 583.742,390.957 583.438,391.461C583.134,391.965 582.714,392.359 582.178,392.643C581.642,392.927 581.034,393.069 580.354,393.069ZM580.354,391.533C580.834,391.533 581.228,391.371 581.536,391.047C581.844,390.723 581.998,390.289 581.998,389.745C581.998,389.201 581.844,388.767 581.536,388.443C581.228,388.119 580.834,387.957 580.354,387.957C579.874,387.957 579.478,388.119 579.166,388.443C578.854,388.767 578.698,389.201 578.698,389.745C578.698,390.289 578.854,390.723 579.166,391.047C579.478,391.371 579.874,391.533 580.354,391.533Z" style="fill:rgb(51,55,67);fill-rule:nonzero;"/>
                </g>
                <g transform="matrix(21.4343,0,0,21.4343,-11941.7,-8089.73)">
                    <path d="M591.562,386.517L591.562,391.893C591.562,393.077 591.254,393.957 590.638,394.533C590.022,395.109 589.122,395.397 587.938,395.397C587.314,395.397 586.722,395.321 586.162,395.169C585.602,395.017 585.138,394.797 584.77,394.509L585.514,393.165C585.786,393.389 586.13,393.567 586.546,393.699C586.962,393.831 587.378,393.897 587.794,393.897C588.442,393.897 588.92,393.751 589.228,393.459C589.536,393.167 589.69,392.725 589.69,392.133L589.69,391.857C589.202,392.393 588.522,392.661 587.65,392.661C587.058,392.661 586.516,392.531 586.024,392.271C585.532,392.011 585.142,391.645 584.854,391.173C584.566,390.701 584.422,390.157 584.422,389.541C584.422,388.925 584.566,388.381 584.854,387.909C585.142,387.437 585.532,387.071 586.024,386.811C586.516,386.551 587.058,386.421 587.65,386.421C588.586,386.421 589.298,386.729 589.786,387.345L589.786,386.517L591.562,386.517ZM588.022,391.125C588.518,391.125 588.924,390.979 589.24,390.687C589.556,390.395 589.714,390.013 589.714,389.541C589.714,389.069 589.556,388.687 589.24,388.395C588.924,388.103 588.518,387.957 588.022,387.957C587.526,387.957 587.118,388.103 586.798,388.395C586.478,388.687 586.318,389.069 586.318,389.541C586.318,390.013 586.478,390.395 586.798,390.687C587.118,390.979 587.526,391.125 588.022,391.125Z" style="fill:rgb(51,55,67);fill-rule:nonzero;"/>
                </g>
            </g>
            <g transform="matrix(8.0567,0,0,8.0567,-4524.55,-6322.46)">
                <path d="M601.214,849.941L601.214,841.351L602.86,841.351L602.86,844.445C603.368,843.867 603.97,843.578 604.665,843.578C605.423,843.578 606.05,843.852 606.546,844.401C607.042,844.95 607.29,845.738 607.29,846.765C607.29,847.828 607.037,848.646 606.531,849.22C606.025,849.794 605.411,850.082 604.688,850.082C604.333,850.082 603.982,849.993 603.637,849.815C603.291,849.637 602.993,849.375 602.743,849.027L602.743,849.941L601.214,849.941ZM602.849,846.695C602.849,847.339 602.95,847.816 603.153,848.125C603.438,848.562 603.817,848.781 604.29,848.781C604.653,848.781 604.963,848.626 605.219,848.315C605.475,848.004 605.603,847.515 605.603,846.847C605.603,846.136 605.474,845.624 605.216,845.309C604.958,844.995 604.628,844.837 604.226,844.837C603.831,844.837 603.503,844.991 603.241,845.297C602.979,845.604 602.849,846.07 602.849,846.695Z" style="fill:rgb(51,55,67);fill-rule:nonzero;"/>
                <path d="M606.995,843.718L608.747,843.718L610.235,848.136L611.688,843.718L613.393,843.718L611.196,849.707L610.804,850.791C610.659,851.154 610.521,851.431 610.39,851.623C610.26,851.814 610.109,851.969 609.939,852.088C609.769,852.208 609.56,852.3 609.312,852.367C609.064,852.433 608.784,852.466 608.471,852.466C608.155,852.466 607.845,852.433 607.54,852.367L607.393,851.078C607.651,851.128 607.884,851.154 608.091,851.154C608.473,851.154 608.757,851.042 608.94,850.817C609.124,850.592 609.264,850.306 609.362,849.959L606.995,843.718Z" style="fill:rgb(51,55,67);fill-rule:nonzero;"/>
            </g>
            <g transform="matrix(1,0,0,1,-33.8494,-91.4148)">
                <g transform="matrix(21.4343,0,0,21.4343,-11941.7,-8089.73)">
                    <path d="M565.702,405.906L569.518,405.906C570.43,405.906 571.236,406.08 571.936,406.428C572.636,406.776 573.18,407.266 573.568,407.898C573.956,408.53 574.15,409.266 574.15,410.106C574.15,410.946 573.956,411.682 573.568,412.314C573.18,412.946 572.636,413.436 571.936,413.784C571.236,414.132 570.43,414.306 569.518,414.306L565.702,414.306L565.702,405.906ZM569.422,412.71C570.262,412.71 570.932,412.476 571.432,412.008C571.932,411.54 572.182,410.906 572.182,410.106C572.182,409.306 571.932,408.672 571.432,408.204C570.932,407.736 570.262,407.502 569.422,407.502L567.646,407.502L567.646,412.71L569.422,412.71Z" style="fill:rgb(51,55,67);fill-rule:nonzero;"/>
                </g>
                <g transform="matrix(21.4343,0,0,21.4343,-11941.7,-8089.73)">
                    <path d="M581.554,407.85L581.554,414.306L579.766,414.306L579.766,413.562C579.302,414.122 578.63,414.402 577.75,414.402C577.142,414.402 576.592,414.266 576.1,413.994C575.608,413.722 575.222,413.334 574.942,412.83C574.662,412.326 574.522,411.742 574.522,411.078C574.522,410.414 574.662,409.83 574.942,409.326C575.222,408.822 575.608,408.434 576.1,408.162C576.592,407.89 577.142,407.754 577.75,407.754C578.574,407.754 579.218,408.014 579.682,408.534L579.682,407.85L581.554,407.85ZM578.074,412.866C578.546,412.866 578.938,412.704 579.25,412.38C579.562,412.056 579.718,411.622 579.718,411.078C579.718,410.534 579.562,410.1 579.25,409.776C578.938,409.452 578.546,409.29 578.074,409.29C577.594,409.29 577.198,409.452 576.886,409.776C576.574,410.1 576.418,410.534 576.418,411.078C576.418,411.622 576.574,412.056 576.886,412.38C577.198,412.704 577.594,412.866 578.074,412.866Z" style="fill:rgb(51,55,67);fill-rule:nonzero;"/>
                </g>
                <g transform="matrix(21.4343,0,0,21.4343,-11941.7,-8089.73)">
                    <path d="M586.246,407.754C587.046,407.754 587.692,407.994 588.184,408.474C588.676,408.954 588.922,409.666 588.922,410.61L588.922,414.306L587.05,414.306L587.05,410.898C587.05,410.386 586.938,410.004 586.714,409.752C586.49,409.5 586.166,409.374 585.742,409.374C585.27,409.374 584.894,409.52 584.614,409.812C584.334,410.104 584.194,410.538 584.194,411.114L584.194,414.306L582.322,414.306L582.322,407.85L584.11,407.85L584.11,408.606C584.358,408.334 584.666,408.124 585.034,407.976C585.402,407.828 585.806,407.754 586.246,407.754Z" style="fill:rgb(51,55,67);fill-rule:nonzero;"/>
                </g>
                <g transform="matrix(21.4343,0,0,21.4343,-11941.7,-8089.73)">
                    <path d="M593.698,407.754C594.498,407.754 595.144,407.994 595.636,408.474C596.128,408.954 596.374,409.666 596.374,410.61L596.374,414.306L594.502,414.306L594.502,410.898C594.502,410.386 594.39,410.004 594.166,409.752C593.942,409.5 593.618,409.374 593.194,409.374C592.722,409.374 592.346,409.52 592.066,409.812C591.786,410.104 591.646,410.538 591.646,411.114L591.646,414.306L589.774,414.306L589.774,407.85L591.562,407.85L591.562,408.606C591.81,408.334 592.118,408.124 592.486,407.976C592.854,407.828 593.258,407.754 593.698,407.754Z" style="fill:rgb(51,55,67);fill-rule:nonzero;"/>
                </g>
                <g transform="matrix(21.4343,0,0,21.4343,-11941.7,-8089.73)">
                    <path d="M603.73,407.85L603.73,413.226C603.73,414.41 603.43,415.29 602.83,415.866C602.23,416.442 601.358,416.73 600.214,416.73C599.606,416.73 599.032,416.654 598.492,416.502C597.952,416.35 597.498,416.13 597.13,415.842L597.874,414.498C598.146,414.722 598.478,414.898 598.87,415.026C599.262,415.154 599.658,415.218 600.058,415.218C600.682,415.218 601.138,415.074 601.426,414.786C601.714,414.498 601.858,414.058 601.858,413.466L601.858,413.25C601.618,413.49 601.334,413.674 601.006,413.802C600.678,413.93 600.326,413.994 599.95,413.994C599.102,413.994 598.43,413.752 597.934,413.268C597.438,412.784 597.19,412.058 597.19,411.09L597.19,407.85L599.062,407.85L599.062,410.814C599.062,411.862 599.498,412.386 600.37,412.386C600.818,412.386 601.178,412.24 601.45,411.948C601.722,411.656 601.858,411.222 601.858,410.646L601.858,407.85L603.73,407.85Z" style="fill:rgb(51,55,67);fill-rule:nonzero;"/>
                </g>
            </g>
        </g>
    </g>
</svg>
