<?xml version="1.0" encoding="UTF-8" standalone="no"?>
<!DOCTYPE svg PUBLIC "-//W3C//DTD SVG 1.1//EN" "http://www.w3.org/Graphics/SVG/1.1/DTD/svg11.dtd">
<svg width="100%" height="100%" viewBox="0 0 342 310" version="1.1" xmlns="http://www.w3.org/2000/svg" xmlns:xlink="http://www.w3.org/1999/xlink" xml:space="preserve" xmlns:serif="http://www.serif.com/" style="fill-rule:evenodd;clip-rule:evenodd;stroke-linejoin:round;stroke-miterlimit:2;">
    <g id="Artboard1" transform="matrix(0.358871,0,0,0.54589,-173.516,-139.768)">
        <rect x="483.505" y="256.037" width="952.62" height="567.248" style="fill:none;"/>
        <g transform="matrix(2.78652,0,0,1.83187,-1625.57,-86.37)">
            <g>
                <path id="New-Message" serif:id="New Message" d="M927.395,187.872C833.641,187.872 757.669,250.105 757.669,326.078C757.669,372.146 784.34,411.749 827.176,436.804C821.518,465.092 790.806,494.996 790.806,494.996C790.806,494.996 843.34,501.462 882.135,462.667C882.135,462.667 927.395,464.283 943.559,463.475C1037.31,461.051 1097.12,401.242 1097.12,325.269C1097.12,249.297 1021.15,187.872 927.395,187.872Z" style="fill:rgb(230,100,99);fill-rule:nonzero;stroke:rgb(171,85,79);stroke-width:1px;"/>
                <g transform="matrix(0.0630993,6.38506e-19,-6.38506e-19,0.0630993,836.722,227.164)">
                    <g transform="matrix(4.16667,0,0,4.16667,2783.11,1121.04)">
                        <path d="M0,182.622C0,187.366 -0.231,192.066 -0.693,196.703C-1.139,201.011 -1.753,205.274 -2.581,209.475C-14.649,271.118 -68.718,320.051 -156.002,320.051C-223.217,320.051 -271.064,293.662 -296.475,274.989C-291.722,271.225 -287.165,267.228 -282.777,263.018C-262.502,243.545 -246.714,220.021 -235.677,193.125C-215.812,205.835 -186.184,220.387 -154.766,220.387C-136.502,220.387 -117.002,214.583 -110.576,197.842L-110.549,197.842C-109.134,194.157 -108.333,189.921 -108.333,185.097C-108.333,157.008 -165.081,144.45 -218.037,118.141C-222.211,116.076 -226.395,113.913 -230.488,111.635C-271.785,88.841 -307.671,55.928 -307.671,-1.852C-307.671,-27.36 -300.96,-50.162 -289.069,-69.458C-286.8,-73.151 -284.325,-76.729 -281.638,-80.165C-253.86,-116.193 -206.244,-137.429 -151.045,-137.429C-55.715,-137.429 -8.668,-87.285 -8.668,-87.285L-54.478,1.246C-54.478,1.246 -99.05,-37.755 -152.282,-37.755C-174.568,-37.755 -199.338,-27.849 -199.338,-3.089C-199.338,52.626 0,42.72 0,182.622" style="fill:white;fill-rule:nonzero;"/>
                    </g>
                    <g transform="matrix(4.16667,0,0,4.16667,1655.39,1463.69)">
                        <path d="M0,18.157C-33.58,-9.238 -49.912,-42.694 -49.912,-84.089C-49.912,-112.641 -42.071,-138.567 -27.982,-160.488C-67.241,-194.202 -121.799,-212.234 -187.492,-212.234L-344.732,-212.234L-344.732,230.391L-187.492,230.391C-126.285,230.391 -74.753,214.371 -36.241,184.573C-9.487,163.916 10.965,136.628 24.066,103.483C31.311,85.193 36.321,65.105 38.867,43.353C25.25,36.188 12.024,27.956 0,18.157M-191.826,137.527L-236.398,137.527L-236.398,-119.378L-191.826,-119.378C-118.782,-119.378 -71.113,-76.043 -71.113,8.153C-71.113,92.964 -116.949,137.527 -191.826,137.527" style="fill:white;fill-rule:nonzero;"/>
                    </g>
                </g>
            </g>
        </g>
    </g>
</svg>
